<svg width="200" height="150" fill="none" xmlns="http://www.w3.org/2000/svg"><path d="M161.3 50.3C155.6 21.6 130.35 0 100 0 87.7 0 76.25 3.6 66.6 9.75L78.75 21.9c6.4-3.3 13.6-5.25 21.25-5.25 25.35 0 45.85 20.5 45.85 45.85v4.15h12.5c13.8 0 25 11.2 25 25 0 9.45-5.3 17.6-13.05 21.85l12.1 12.1c10.6-7.55 17.6-19.9 17.6-33.9 0-22.05-17.1-39.85-38.7-41.4ZM25 10.65 47.9 33.5C21.3 34.6 0 56.5 0 83.35c0 27.65 22.35 50 50 50h97.7L164.35 150l10.6-10.6L35.65 0 25 10.65ZM64.4 50l66.65 66.65H50c-18.4 0-33.35-14.9-33.35-33.35C16.65 64.85 31.6 50 50 50h14.4Z" fill="#000"/></svg>
