<svg width="16" height="16" viewBox="0 0 16 16" fill="none" xmlns="http://www.w3.org/2000/svg">
    <path d="M1 8L5 8" stroke="white" stroke-width="2" stroke-linecap="round"/>
    <path d="M13.1875 12C13.0833 11.7969 13.0078 11.5443 12.9609 11.2422C12.4141 11.8516 11.7031 12.1562 10.8281 12.1562C10 12.1562 9.3125 11.9167 8.76562 11.4375C8.22396 10.9583 7.95312 10.3542 7.95312 9.625C7.95312 8.72917 8.28385 8.04167 8.94531 7.5625C9.61198 7.08333 10.5729 6.84115 11.8281 6.83594H12.8672V6.35156C12.8672 5.96094 12.7656 5.64844 12.5625 5.41406C12.3646 5.17969 12.0495 5.0625 11.6172 5.0625C11.237 5.0625 10.9375 5.15365 10.7188 5.33594C10.5052 5.51823 10.3984 5.76823 10.3984 6.08594H8.14062C8.14062 5.59635 8.29167 5.14323 8.59375 4.72656C8.89583 4.3099 9.32292 3.98438 9.875 3.75C10.4271 3.51042 11.0469 3.39062 11.7344 3.39062C12.776 3.39062 13.6016 3.65365 14.2109 4.17969C14.8255 4.70052 15.1328 5.4349 15.1328 6.38281V10.0469C15.138 10.849 15.25 11.4557 15.4688 11.8672V12H13.1875ZM11.3203 10.4297C11.6536 10.4297 11.9609 10.3568 12.2422 10.2109C12.5234 10.0599 12.7318 9.85938 12.8672 9.60938V8.15625H12.0234C10.8932 8.15625 10.2917 8.54688 10.2188 9.32812L10.2109 9.46094C10.2109 9.74219 10.3099 9.97396 10.5078 10.1562C10.7057 10.3385 10.9766 10.4297 11.3203 10.4297Z" fill="white"/>
</svg>
