<svg width="70" height="70" viewBox="0 0 70 70" fill="none" xmlns="http://www.w3.org/2000/svg">
    <path d="M33.5758 0.0451242C33.3513 0.0724723 32.7706 0.116229 32.2886 0.154516C31.5218 0.209212 30.492 0.318604 29.9881 0.400649C28.5803 0.619433 27.5396 0.827278 26.5098 1.08435C19.0111 2.96589 12.3943 7.24859 7.55213 13.3636C3.27967 18.7566 0.672366 25.4241 0.162956 32.2611C0.130091 32.6987 0.0807935 33.3113 0.0534058 33.6285C-0.0178019 34.3614 -0.0178019 35.6304 0.0534058 36.3633C0.0807935 36.6805 0.130091 37.2931 0.162956 37.7307C0.957197 48.4457 6.7798 58.2745 15.8561 64.2364C20.7968 67.4799 26.4496 69.4106 32.2612 69.8373C32.6994 69.8701 33.3129 69.9193 33.6306 69.9467C34.3646 70.0178 35.6354 70.0178 36.3694 69.9467C36.6871 69.9193 37.3006 69.8701 37.7388 69.8373C45.1991 69.2848 52.3035 66.2875 58.033 61.2773C64.8963 55.2662 69.1688 46.7501 69.837 37.7307C69.8699 37.2931 69.9192 36.6805 69.9466 36.3633C70.0178 35.6304 70.0178 34.3614 69.9466 33.6285C69.9192 33.3113 69.8699 32.6987 69.837 32.2611C69.0428 21.5461 63.2202 11.7173 54.1439 5.75539C49.2032 2.51192 43.5504 0.581145 37.7388 0.154516C37.3006 0.121699 36.6871 0.0724723 36.3694 0.0451242C35.7121 -0.0150414 34.1838 -0.0150414 33.5758 0.0451242ZM31.8121 20.124L31.823 33.6121L31.2369 34.1864C28.5639 36.8063 12.334 52.2798 12.2683 52.2689C12.1752 52.247 11.4686 51.2789 10.8606 50.3217C8.68598 46.9087 7.23444 42.9596 6.68669 38.9887C6.47854 37.4682 6.4402 36.7954 6.4402 34.9959C6.4402 33.1964 6.47854 32.5236 6.68669 31.0031C7.71646 23.5425 11.7643 16.6946 17.8608 12.1056C20.3586 10.2241 23.2507 8.73086 26.2634 7.75727C28.0326 7.18843 30.7549 6.60318 31.5218 6.62506L31.7956 6.636L31.8121 20.124ZM39.3437 6.71804C43.408 7.34705 47.297 8.85119 50.7698 11.1375C53.7605 13.1011 56.7074 16.0218 58.7012 19.0028C61.1552 22.6565 62.7272 26.7532 63.3133 31.0031C63.5215 32.5236 63.5598 33.1964 63.5598 34.9959C63.5598 36.7954 63.5215 37.4682 63.3133 38.9887C62.7656 42.9596 61.314 46.9087 59.1394 50.3217C58.5314 51.2789 57.8248 52.247 57.7317 52.2689C57.666 52.2798 41.4361 36.8063 38.7685 34.1864L38.177 33.6121V20.1459C38.177 12.7401 38.1934 6.66335 38.2153 6.64694C38.2756 6.5813 38.5933 6.60318 39.3437 6.71804V6.71804ZM31.8121 52.9964L31.7956 63.3558L31.6149 63.3722C31.5163 63.3831 31.0945 63.3394 30.6837 63.2738C25.7978 62.5244 21.2021 60.528 17.3186 57.4705C16.9297 57.1642 16.7599 56.9946 16.7708 56.929C16.7818 56.8798 19.5863 54.1559 23.0042 50.8851C26.4222 47.6088 29.7854 44.3927 30.4701 43.7309C31.2479 42.9815 31.7409 42.5494 31.7737 42.5822C31.8011 42.6096 31.8176 46.5805 31.8121 52.9964V52.9964ZM45.7962 49.731C49.8769 53.6363 53.2182 56.8798 53.2292 56.929C53.2401 56.9946 53.0703 57.1642 52.6814 57.4705C48.7979 60.528 44.2022 62.5244 39.3163 63.2738C38.9055 63.3394 38.4837 63.3831 38.3851 63.3722L38.2044 63.3558L38.1879 53.0182C38.1824 47.3299 38.1879 42.6479 38.2044 42.6096C38.2208 42.5658 38.2591 42.5549 38.3029 42.5822C38.3468 42.6041 41.7154 45.8257 45.7962 49.731V49.731Z" fill="currentColor"/>
</svg>
