<?xml version="1.0" encoding="UTF-8"?>
<svg version="1.1" height="30" viewBox="0 0 565.59 448.5" xmlns="http://www.w3.org/2000/svg">
 <g transform="translate(-28.63 -264.64)">
  <g transform="matrix(24.996 0 0 24.996 -4576.6 -16045)" stroke-width="0">
   <path d="m190.51 661.13s-0.58547-3.7633 0.857-5.7925c1.4424-2.0292 3.0444-1.982 4.3348-2.0102s3.0768-0.0835 3.222 0.063c0.14523 0.14646-0.12782 0.51108-0.12782 0.51108s-1.2711-0.29486-1.9787 0.4247c-0.70765 0.71955-1.8957 2.0183-0.47893 3.9428l1.4168 1.9246-1.9941 3.528z" fill="#2c5aa0"/>
   <path d="m191.17 666.75s-1.821-3.432-3.5864-2.5082c-1.7654 0.92376-1.7935 4.3748-1.7935 4.3748l-0.41589-0.0209s-0.74141-4.887 0.014-6.8113c0.75538-1.9244 2.3413-3.9125 6.6418-1.0131 4.3006 2.8994 4.6651 4.2585 4.6651 4.2585z" fill="#ffffff"/>
   <path d="m199.37 664.55s0.31618-3.6608 2.3069-3.7443c1.9907-0.0836 3.5515 2.2792 3.5515 2.2792l0.39062-0.36965s-0.32146-2.8988-1.8722-4.2659c-3.018-2.6606-5.6292 0.10567-7.5273 1.8598-1.4106 1.3035-1.8183 5.4675-1.8183 5.4675z" fill="#d40000"/>
   <path d="m191.42 667.78c-0.14671-0.4074-0.60762-1.1482-0.60762-1.1482s2.4874-1.2079 3.8178-1.5484c1.5235-0.38987 4.6863-0.54504 4.6863-0.54504s0.0181 1.0619 0.0885 1.5871c0.0625 0.46682 0.29567 1.3817 0.29567 1.3817s-2.8011 0.11251-4.1433 0.47435c-1.3193 0.35509-3.7547 1.6438-3.7547 1.6438-0.0181-0.62561-0.16974-1.2543-0.38258-1.8454z" fill="#ffde03"/>
   <path transform="matrix(.039171 -.010505 .010505 .039171 216.82 630.38)" d="m-529.05 446.58c0 16.753-13.581 30.334-30.334 30.334s-30.334-13.581-30.334-30.334 13.581-30.334 30.334-30.334 30.334 13.581 30.334 30.334z" color="#000000" fill="#00966e"/>
   <path transform="matrix(.039171 -.010505 .010505 .039171 222.86 640.3)" d="m-529.05 446.58c0 16.753-13.581 30.334-30.334 30.334s-30.334-13.581-30.334-30.334 13.581-30.334 30.334-30.334 30.334 13.581 30.334 30.334z" color="#000000" fill="#00966e"/>
   <path transform="matrix(.039171 -.010505 .010505 .039171 202.69 645.85)" d="m-529.05 446.58c0 16.753-13.581 30.334-30.334 30.334s-30.334-13.581-30.334-30.334 13.581-30.334 30.334-30.334 30.334 13.581 30.334 30.334z" color="#000000" fill="#00966e"/>
  </g>
 </g>
</svg>
